<?xml version="1.0" encoding="UTF-8" standalone="no"?>
<!-- Created with Inkscape (http://www.inkscape.org/) -->
<svg
   xmlns:svg="http://www.w3.org/2000/svg"
   xmlns="http://www.w3.org/2000/svg"
   version="1.0"
   width="135.00011"
   height="135.00002"
   id="svg4855">
  <defs
     id="defs4857" />
  <g
     transform="translate(-206.50358,-294.80223)"
     id="layer1">
    <path
       d="M 50,1.78125 C 50.024832,1.79769 34.87376,15.26453 35,21.78125 C 35.126229,28.29799 42.15031,27.20418 45,26.78125 L 45,36.78125 L 0.5,36.78125 L 0.5,82.375 L 10.5,82.375 C 10.5,82.375 19.36137,73.77171 23.5,72.5625 C 28.32364,71.15315 35.391649,75.564531 35.5,79.9375 C 35.60832,84.31048 30.5,87.312499 30.5,87.3125 C 30.5,87.3125 35.493629,90.092542 35.5,94.6875 C 35.50637,99.28246 28.36234,103.33683 23.5,102.0625 C 19.26136,100.95163 10.5,92.21875 10.5,92.21875 L 0.5,92.21875 L 0.5,136.78125 L 48.75,136.78125 L 48.75,126.78125 C 45.90031,127.20418 38.87623,128.29799 38.75,121.78125 C 38.62376,115.26453 53.774828,101.79769 53.75,101.78125 C 53.72517,101.76482 68.853599,114.5541 68.75,121.78125 C 68.64639,129.00841 58.749998,126.78125 58.75,126.78125 L 58.75,136.78125 L 100.5,136.78125 L 100.5,92.28125 L 115.5,92.28125 C 115.5,92.281251 112.9082,102.13158 120.5,102.28125 C 128.09181,102.43092 125.5,92.28125 125.5,92.28125 C 125.5,92.281251 135.53769,95.67887 135.5,87.28125 C 135.4623,78.883626 125.5,82.28125 125.5,82.28125 C 125.5,82.281249 128.98668,72.28522 120.5,72.28125 C 112.01332,72.277278 115.5,82.28125 115.5,82.28125 L 100.5,82.28125 L 100.5,36.78125 L 55,36.78125 L 55,26.78125 C 55.000002,26.78125 64.89639,29.00841 65,21.78125 C 65.103599,14.5541 49.97517,1.76482 50,1.78125 z"
       transform="translate(206.00358,293.021)"
       id="path2392"
       style="fill:#ff0000;fill-opacity:1;fill-rule:evenodd;stroke:none;stroke-width:0.99997878px;stroke-linecap:butt;stroke-linejoin:miter;stroke-opacity:1" />
  </g>
</svg>
