<?xml version="1.0" encoding="UTF-8" standalone="no"?>
<!-- Created with Inkscape (http://www.inkscape.org/) -->
<svg
   xmlns:svg="http://www.w3.org/2000/svg"
   xmlns="http://www.w3.org/2000/svg"
   version="1.0"
   width="135.00002"
   height="135.00169"
   id="svg3392">
  <defs
     id="defs3394" />
  <g
     transform="translate(-257.93214,-423.38165)"
     id="layer1">
    <path
       d="M 42.25,0.8125 C 37.877001,0.92079997 33.4656,7.9889 34.875,12.8125 C 36.084199,16.9511 44.6875,25.8125 44.6875,25.8125 L 44.6875,35.8125 L 0.5,35.8125 L 0.5,81.3125 L 10.5,81.3125 L 20.5,71.3125 L 35.5,86.3125 L 20.5,101.3125 L 10.5,91.3125 L 0.5,91.3125 L 0.5,135.8125 L 45,135.8125 L 45,125.8125 C 42.1503,126.2354 35.126199,127.3292 35,120.8125 C 34.8738,114.2957 50.024901,100.8289 50,100.8125 C 49.9752,100.796 65.103596,113.5853 65,120.8125 C 64.8964,128.0396 55,125.8125 55,125.8125 L 55,135.8125 L 100.5,135.8125 L 100.5,91.3125 L 110.5,91.3125 C 110.5,91.312503 108.2729,101.2089 115.5,101.3125 C 122.7272,101.4161 135.5165,86.2877 135.5,86.3125 C 135.48361,86.337397 122.0168,71.1863 115.5,71.3125 C 108.9833,71.438703 110.0771,78.4628 110.5,81.3125 L 100.5,81.3125 L 100.5,35.8125 L 54.53125,35.8125 L 54.53125,25.8125 C 54.531249,25.812501 63.2641,17.0511 64.375,12.8125 C 65.649304,7.9502 61.595,0.8061 57,0.8125 C 52.4051,0.81879997 49.625,5.8125 49.625,5.8125 C 49.625001,5.8124999 46.623,0.7041 42.25,0.8125 z"
       transform="translate(257.43214,422.57085)"
       id="path2387"
       style="fill:#ff0000;fill-opacity:1;fill-rule:evenodd;stroke:none;stroke-width:1px;stroke-linecap:butt;stroke-linejoin:miter;stroke-opacity:1" />
  </g>
</svg>
