<?xml version="1.0" encoding="UTF-8" standalone="no"?>
<!-- Created with Inkscape (http://www.inkscape.org/) -->
<svg
   xmlns:svg="http://www.w3.org/2000/svg"
   xmlns="http://www.w3.org/2000/svg"
   version="1.0"
   width="135.00011"
   height="135.00169"
   id="svg2388">
  <defs
     id="defs2390" />
  <g
     transform="translate(-226.50357,-360.53)"
     id="layer1">
    <path
       d="M 42.625,1.71875 C 38.252031,1.8271001 33.84065,8.89511 35.25,13.71875 C 36.45921,17.85738 45.09375,26.71875 45.09375,26.71875 L 45.09375,36.71875 L 0.5,36.71875 L 0.5,82.3125 L 10.5,82.3125 C 10.5,82.3125 19.36137,73.677957 23.5,72.46875 C 28.32364,71.0594 35.391649,75.470778 35.5,79.84375 C 35.60832,84.21673 30.5,87.218754 30.5,87.21875 C 30.5,87.21875 35.493629,89.998789 35.5,94.59375 C 35.50637,99.18871 28.36234,103.24308 23.5,101.96875 C 19.26136,100.85788 10.5,92.124997 10.5,92.125 L 0.5,92.125 L 0.5,136.71875 L 45,136.71875 L 45,121.71875 C 45,121.71875 34.996031,125.20543 35,116.71875 C 35.00397,108.23207 44.999999,111.71875 45,111.71875 C 45,111.71875 41.60238,101.75644 50,101.71875 C 58.39762,101.68106 55.000001,111.71875 55,111.71875 C 55,111.71875 65.149673,109.12694 65,116.71875 C 64.85033,124.31055 55.000001,121.71875 55,121.71875 L 55,136.71875 L 100.5,136.71875 L 100.5,92.21875 L 115.5,92.21875 C 115.5,92.218748 112.9082,102.06908 120.5,102.21875 C 128.0918,102.36842 125.5,92.21875 125.5,92.21875 C 125.5,92.218748 135.5377,95.61637 135.5,87.21875 C 135.46231,78.821131 125.5,82.21875 125.5,82.21875 C 125.5,82.218747 128.9866,72.22272 120.5,72.21875 C 112.0133,72.214783 115.5,82.21875 115.5,82.21875 L 100.5,82.21875 L 100.5,36.71875 L 54.9375,36.71875 L 54.9375,26.71875 C 54.9375,26.71875 63.67038,17.95739 64.78125,13.71875 C 66.055583,8.8564104 62.00121,1.71238 57.40625,1.71875 C 52.811292,1.7251201 50,6.71875 50,6.71875 C 49.999999,6.7187502 46.99798,1.61043 42.625,1.71875 z"
       transform="translate(226.00357,358.81295)"
       id="path2394"
       style="fill:#ff0000;fill-opacity:1;fill-rule:evenodd;stroke:none;stroke-width:0.991781px;stroke-linecap:butt;stroke-linejoin:miter;stroke-opacity:1" />
  </g>
</svg>
