<?xml version="1.0" encoding="UTF-8" standalone="no"?>
<!-- Created with Inkscape (http://www.inkscape.org/) -->
<svg
   xmlns:svg="http://www.w3.org/2000/svg"
   xmlns="http://www.w3.org/2000/svg"
   version="1.0"
   width="135.00011"
   height="135.00002"
   id="svg5406">
  <defs
     id="defs5408" />
  <g
     transform="translate(-263.64643,-426.24546)"
     id="layer1">
    <path
       d="M 50,-0.90625 C 50.024832,-0.88981002 34.87376,12.57703 35,19.09375 C 35.126229,25.610489 42.15031,24.51668 45,24.09375 L 45,34.09375 L 0.5,34.09375 L 0.5,79.59375 L 15.5,79.59375 C 15.5,79.59375 12.01332,69.589779 20.5,69.59375 C 28.98668,69.59772 25.5,79.593751 25.5,79.59375 C 25.5,79.59375 35.462309,76.196128 35.5,84.59375 C 35.53769,92.99137 25.5,89.593752 25.5,89.59375 C 25.5,89.59375 28.09181,99.743416 20.5,99.59375 C 12.9082,99.44408 15.5,89.593752 15.5,89.59375 L 0.5,89.59375 L 0.5,134.09375 L 45.09375,134.09375 L 45.09375,124.09375 C 45.09375,124.09375 36.45921,115.23238 35.25,111.09375 C 33.84065,106.27011 38.252031,99.202102 42.625,99.09375 C 46.99798,98.98543 49.999999,104.09375 50,104.09375 C 50,104.09375 52.811292,99.100122 57.40625,99.09375 C 62.00121,99.08738 66.055583,106.23141 64.78125,111.09375 C 63.67038,115.33239 54.9375,124.09375 54.9375,124.09375 L 54.9375,134.09375 L 100.5,134.09375 L 100.5,89.59375 L 115.5,89.59375 C 115.5,89.593752 112.9082,99.44408 120.5,99.59375 C 128.09181,99.743416 125.5,89.59375 125.5,89.59375 C 125.5,89.593752 135.53769,92.99137 135.5,84.59375 C 135.4623,76.196128 125.5,79.59375 125.5,79.59375 C 125.5,79.593751 128.98668,69.59772 120.5,69.59375 C 112.01332,69.589779 115.5,79.59375 115.5,79.59375 L 100.5,79.59375 L 100.5,34.09375 L 55,34.09375 L 55,24.09375 C 55.000002,24.093749 64.89639,26.32091 65,19.09375 C 65.103599,11.866599 49.97517,-0.92268 50,-0.90625 z"
       transform="translate(263.14643,427.15173)"
       id="path2392"
       style="fill:#ff0000;fill-opacity:1;fill-rule:evenodd;stroke:none;stroke-width:0.99997878px;stroke-linecap:butt;stroke-linejoin:miter;stroke-opacity:1" />
  </g>
</svg>
