<?xml version="1.0" encoding="UTF-8" standalone="no"?>
<!-- Created with Inkscape (http://www.inkscape.org/) -->
<svg
   xmlns:svg="http://www.w3.org/2000/svg"
   xmlns="http://www.w3.org/2000/svg"
   version="1.0"
   width="135.00002"
   height="135.00002"
   id="svg2397">
  <defs
     id="defs2399" />
  <g
     transform="translate(-259.92143,-373.34456)"
     id="layer1">
    <path
       d="M 50.5,0.6875 C 50.524832,0.70394001 35.37376,14.17078 35.5,20.6875 C 35.626229,27.204239 42.65031,26.11043 45.5,25.6875 L 45.5,35.6875 L 0.5,35.6875 L 0.5,80.6875 L 10.5,80.6875 L 20.5,70.6875 L 35.5,85.6875 L 20.5,100.6875 L 10.5,90.6875 L 0.5,90.6875 L 0.5,135.6875 L 45.59375,135.6875 L 45.59375,125.6875 C 45.59375,125.6875 36.959209,116.82613 35.75,112.6875 C 34.34065,107.86386 38.752029,100.79585 43.125,100.6875 C 47.49798,100.57918 50.500001,105.6875 50.5,105.6875 C 50.5,105.6875 53.31129,100.69387 57.90625,100.6875 C 62.50121,100.68113 66.555577,107.82516 65.28125,112.6875 C 64.17038,116.92614 55.437499,125.6875 55.4375,125.6875 L 55.4375,135.6875 L 100.5,135.6875 L 100.5,90.6875 L 110.5,90.6875 C 110.5,90.687503 108.27284,100.58389 115.5,100.6875 C 122.72715,100.7911 135.51643,85.66267 135.5,85.6875 C 135.48355,85.712329 122.01672,70.56126 115.5,70.6875 C 108.98326,70.813731 110.07707,77.83781 110.5,80.6875 L 100.5,80.6875 L 100.5,35.6875 L 55.5,35.6875 L 55.5,25.6875 C 55.500002,25.687499 65.39639,27.91466 65.5,20.6875 C 65.603599,13.460349 50.47517,0.67107 50.5,0.6875 z"
       transform="translate(259.42143,372.65708)"
       id="path2387"
       style="fill:#ff0000;fill-opacity:1;fill-rule:evenodd;stroke:none;stroke-width:1px;stroke-linecap:butt;stroke-linejoin:miter;stroke-opacity:1" />
  </g>
</svg>
