<?xml version="1.0" encoding="UTF-8" standalone="no"?>
<!-- Created with Inkscape (http://www.inkscape.org/) -->
<svg
   xmlns:svg="http://www.w3.org/2000/svg"
   xmlns="http://www.w3.org/2000/svg"
   version="1.0"
   width="135.00169"
   height="135"
   id="svg4304">
  <defs
     id="defs4306" />
  <g
     transform="translate(-172.21786,-626.23612)"
     id="layer1">
    <path
       d="M 50,1.25 L 35,16.25 L 45,26.25 L 45,36.25 L 0.5,36.25 L 0.5,81.75 L 10.5,81.75 L 20.5,71.75 L 35.5,86.75 L 20.5,101.75 L 10.5,91.75 L 0.5,91.75 L 0.5,136.25 L 45,136.25 L 45,121.25 C 45,121.25 34.996031,124.7367 35,116.25 C 35.00397,107.7633 44.999999,111.25 45,111.25 C 45,111.25 41.60238,101.2877 50,101.25 C 58.39762,101.2123 55.000001,111.25 55,111.25 C 55,111.25 65.149673,108.6582 65,116.25 C 64.85033,123.8418 55.000001,121.25 55,121.25 L 55,136.25 L 100.5,136.25 L 100.5,91.6875 L 110.5,91.6875 C 110.5,91.6875 119.2613,100.38913 123.5,101.5 C 128.3623,102.77433 135.5064,98.71996 135.5,94.125 C 135.49359,89.530042 130.5,86.75 130.5,86.75 C 130.49999,86.749999 135.6083,83.74798 135.5,79.375 C 135.39159,75.002031 128.3236,70.59065 123.5,72 C 119.3613,73.20921 110.5,81.84375 110.5,81.84375 L 100.5,81.84375 L 100.5,36.25 L 55,36.25 L 55,26.25 L 65,16.25 L 50,1.25 z"
       transform="translate(171.71786,624.98612)"
       id="path2387"
       style="fill:#ff0000;fill-opacity:1;fill-rule:evenodd;stroke:none;stroke-width:1px;stroke-linecap:butt;stroke-linejoin:miter;stroke-opacity:1" />
  </g>
</svg>
