<?xml version="1.0" encoding="UTF-8" standalone="no"?>
<!-- Created with Inkscape (http://www.inkscape.org/) -->
<svg
   xmlns:svg="http://www.w3.org/2000/svg"
   xmlns="http://www.w3.org/2000/svg"
   version="1.0"
   width="135.00169"
   height="135"
   id="svg3209">
  <defs
     id="defs3211" />
  <g
     transform="translate(-295.075,-306.24719)"
     id="layer1">
    <path
       d="M 50,3.0625 L 35,18.0625 L 45,28.0625 L 45,38.0625 L 0.5,38.0625 L 0.5,83.65625 L 10.5,83.65625 C 10.5,83.65625 19.36137,75.021713 23.5,73.8125 C 28.32364,72.40315 35.391649,76.814534 35.5,81.1875 C 35.60832,85.56048 30.5,88.562501 30.5,88.5625 C 30.5,88.5625 35.493629,91.342537 35.5,95.9375 C 35.50637,100.53246 28.36234,104.58683 23.5,103.3125 C 19.26136,102.20163 10.5,93.468753 10.5,93.46875 L 0.5,93.46875 L 0.5,138.0625 L 45,138.0625 L 45,128.0625 C 42.15031,128.48543 35.126229,129.57924 35,123.0625 C 34.87376,116.54578 50.024832,103.07894 50,103.0625 C 49.97517,103.04607 65.103599,115.83535 65,123.0625 C 64.89639,130.28966 55.000002,128.0625 55,128.0625 L 55,138.0625 L 100.5,138.0625 L 100.5,93.46875 L 110.5,93.46875 C 110.5,93.468753 119.26136,102.20163 123.5,103.3125 C 128.36234,104.58683 135.50637,100.53246 135.5,95.9375 C 135.49363,91.342537 130.5,88.5625 130.5,88.5625 C 130.5,88.562501 135.60832,85.56048 135.5,81.1875 C 135.39165,76.814534 128.32364,72.40315 123.5,73.8125 C 119.36137,75.021713 110.5,83.65625 110.5,83.65625 L 100.5,83.65625 L 100.5,38.0625 L 55,38.0625 L 55,28.0625 L 65,18.0625 L 50,3.0625 z"
       transform="translate(294.575,303.18469)"
       id="path2387"
       style="fill:#ff0000;fill-opacity:1;fill-rule:evenodd;stroke:none;stroke-width:1px;stroke-linecap:butt;stroke-linejoin:miter;stroke-opacity:1" />
  </g>
</svg>
