<?xml version="1.0" encoding="UTF-8" standalone="no"?>
<!-- Created with Inkscape (http://www.inkscape.org/) -->
<svg
   xmlns:svg="http://www.w3.org/2000/svg"
   xmlns="http://www.w3.org/2000/svg"
   version="1.0"
   width="135"
   height="135.00011"
   id="svg3200">
  <defs
     id="defs3202" />
  <g
     transform="translate(-29.360716,-778.80672)"
     id="layer1">
    <path
       d="M 50,62.6875 C 41.602378,62.725191 45,72.6875 45,72.6875 C 45.000001,72.687501 35.00397,69.20082 35,77.6875 C 34.996029,86.174183 45,82.6875 45,82.6875 L 45,97.6875 L 0.5,97.6875 L 0.5,143.1875 L 15.5,143.1875 C 15.5,143.1875 12.01332,133.18352 20.5,133.1875 C 28.98668,133.19147 25.500001,143.1875 25.5,143.1875 C 25.5,143.1875 35.462311,139.78989 35.5,148.1875 C 35.53769,156.58512 25.500001,153.1875 25.5,153.1875 C 25.5,153.1875 28.09181,163.33718 20.5,163.1875 C 12.9082,163.03783 15.5,153.1875 15.5,153.1875 L 0.5,153.1875 L 0.5,197.6875 L 45,197.6875 L 45,187.6875 L 35,177.6875 L 50,162.6875 L 65,177.6875 L 55,187.6875 L 55,197.6875 L 100.5,197.6875 L 100.5,153.1875 L 110.5,153.1875 L 120.5,163.1875 L 135.5,148.1875 L 120.5,133.1875 L 110.5,143.1875 L 100.5,143.1875 L 100.5,97.6875 L 55,97.6875 L 55,82.6875 C 54.999999,82.687503 64.85033,85.2793 65,77.6875 C 65.149671,70.095693 55,72.6875 55,72.6875 C 54.999999,72.687501 58.39762,62.64981 50,62.6875 z"
       transform="translate(28.860716,716.11933)"
       id="path2387"
       style="fill:#ff0000;fill-opacity:1;fill-rule:evenodd;stroke:none;stroke-width:1px;stroke-linecap:butt;stroke-linejoin:miter;stroke-opacity:1" />
  </g>
</svg>
