<?xml version="1.0" encoding="UTF-8" standalone="no"?>
<!-- Created with Inkscape (http://www.inkscape.org/) -->
<svg
   xmlns:svg="http://www.w3.org/2000/svg"
   xmlns="http://www.w3.org/2000/svg"
   version="1.0"
   width="135.00011"
   height="135.00169"
   id="svg3350">
  <defs
     id="defs3352" />
  <path
     d="M 42.125,0.0033886085 C 37.752031,0.11173722 33.34065,7.1796584 34.75,12.003238 C 35.95921,16.141816 44.59375,25.003075 44.59375,25.003075 L 44.59375,35.002949 L 0,35.002949 L 0,80.502378 L 10,80.502378 L 20,70.502504 L 35,85.502315 L 20,100.50212 L 10,90.502253 L 0,90.502253 L 0,135.00169 L 44.5,135.00169 L 44.5,125.00182 L 34.5,115.00194 L 49.5,100.00213 L 64.5,115.00194 L 54.5,125.00182 L 54.5,135.00169 L 100,135.00169 L 100,90.502253 L 115,90.502253 C 115,90.502251 112.4082,100.35246 120,100.50212 C 127.59181,100.65179 125,90.502253 125,90.502253 C 125,90.502251 135.03769,93.89983 135,85.502315 C 134.9623,77.104802 125,80.502378 125,80.502378 C 125,80.502382 128.48668,70.506474 120,70.502504 C 111.51332,70.498536 115,80.502378 115,80.502378 L 100,80.502378 L 100,35.002949 L 54.4375,35.002949 L 54.4375,25.003075 C 54.4375,25.003076 63.17038,16.241825 64.28125,12.003238 C 65.555579,7.1409589 61.50121,-0.0029813116 56.90625,0.0033886085 C 52.311288,0.0097584985 49.5,5.0033258 49.5,5.0033258 C 49.499999,5.003326 46.49798,-0.10493003 42.125,0.0033886085 z"
     id="path2397"
     style="fill:#ff0000;fill-opacity:1;fill-rule:evenodd;stroke:none;stroke-width:1px;stroke-linecap:butt;stroke-linejoin:miter;stroke-opacity:1" />
</svg>
