<?xml version="1.0" encoding="UTF-8" standalone="no"?>
<!-- Created with Inkscape (http://www.inkscape.org/) -->

<svg
   xmlns:svg="http://www.w3.org/2000/svg"
   xmlns="http://www.w3.org/2000/svg"
   version="1.1"
   width="120"
   height="48"
   id="svg2">
  <defs
     id="defs6" />
  <g
     transform="matrix(0,-1,1,0,52.999517,47.067589)"
     id="g3614">
    <path
       d="m 19.235605,60.757991 c -1.7583,-2.888858 -6.32031,-9.171387 -10.1377803,-13.961175 -3.81748,-4.789789 -7.44137,-10.144439 -8.05309,-11.899223 -3.11279,-8.929346 1.54108,-17.892072 9.2904003,-17.892072 2.23093,0 4.01899,1.139751 7.2775,4.638837 l 4.319882,4.638837 -0.02386,-3.888837 C 21.884977,18.53399 20.826486,13.113114 19.440777,9.7555213 18.820035,8.25145 19.310725,8.0055214 22.932514,8.0055214 c 3.621785,0 4.112481,0.2459286 3.491737,1.7499999 -1.385709,3.3575927 -2.444198,8.7784687 -2.46788,12.6388367 l -0.02386,3.888837 4.319887,-4.638837 c 3.258501,-3.499086 5.046564,-4.638837 7.277494,-4.638837 5.652098,0 10.402619,5.60825 10.402619,12.280863 0,4.653845 -3.251467,10.547647 -12.027455,21.80168 -4.1099,5.270398 -8.372545,10.784009 -9.472545,12.252469 l -2,2.669927 -3.196909,-5.252469 z"
       id="path2818"
       style="fill:none;stroke:#0000ff;stroke-width:2;stroke-miterlimit:4;stroke-opacity:1;stroke-dasharray:none" />
    <path
       d="m 19.235604,-46.747048 c -1.7583,2.888858 -6.32031,9.171387 -10.1377797,13.961175 -3.817479,4.789789 -7.441369,10.14444 -8.053089,11.899224 -3.11279,8.929346 1.54108,17.8920709 9.2903987,17.8920709 2.23093,0 4.01899,-1.139751 7.2775,-4.638837 l 4.319882,-4.6388359 -0.02386,3.8888359 c -0.02368,3.860368 -1.082171,9.2812435 -2.46788,12.6388365 -0.620742,1.504071 -0.130052,1.75 3.491737,1.75 3.621785,0 4.112481,-0.245929 3.491737,-1.75 -1.385709,-3.357593 -2.444198,-8.7784685 -2.46788,-12.6388365 l -0.02386,-3.8888359 4.319887,4.6388359 c 3.258501,3.499086 5.046564,4.638837 7.277494,4.638837 5.652098,0 10.402619,-5.60825 10.402619,-12.2808619 0,-4.653845 -3.251467,-10.547648 -12.027455,-21.801681 -4.1099,-5.270398 -8.372545,-10.784009 -9.472545,-12.252469 l -2,-2.669927 -3.196909,5.252469 z"
       id="path2818-4"
       style="fill:none;stroke:#0000ff;stroke-width:2;stroke-miterlimit:4;stroke-opacity:1;stroke-dasharray:none" />
  </g>
</svg>
