<?xml version="1.0" encoding="UTF-8" standalone="no"?>
<!-- Created with Inkscape (http://www.inkscape.org/) -->

<svg
   xmlns:svg="http://www.w3.org/2000/svg"
   xmlns="http://www.w3.org/2000/svg"
   version="1.1"
   width="120"
   height="48"
   id="svg2">
  <defs
     id="defs6" />
  <g
     transform="translate(-0.50010305,0)"
     id="g2857">
    <path
       d="m 69.765782,43.01182 c -2.80382,-2.505209 -3.26578,-3.577726 -3.26578,-7.582029 0,-4.049156 0.45184,-5.067778 3.42723,-7.726288 l 3.42723,-3.06223 -4.92723,0.523177 c -2.70998,0.287747 -5.71473,0.850808 -6.67723,1.251247 -1.45469,0.605211 -1.75,0.185719 -1.75,-2.485906 0,-2.671625 0.29531,-3.091117 1.75,-2.485906 0.9625,0.400439 3.96725,0.9635 6.67723,1.251247 l 4.92723,0.523177 -3.42723,-3.06223 c -2.94188,-2.628574 -3.42723,-3.699702 -3.42723,-7.563695 0,-5.3455384 3.06933,-9.3035714 7.92034,-10.2136264 6.98014,-1.3094833 11.96427,3.484722 11.96427,11.5083644 l 0,4.721388 3.44724,-2.339359 c 5.09618,-3.458356 9.595784,-3.111725 13.768158,1.06064 3.77955,3.779557 4.2974,6.963936 1.88965,11.620016 -2.89185,5.59222 -9.744398,6.839768 -16.075858,2.926711 -3.62854,-2.242565 -3.6427,-2.243274 -2.97805,-0.149166 1.20511,3.79697 -1.23727,10.110651 -4.73658,12.244308 -4.52242,2.757492 -8.09454,2.470175 -11.93339,-0.95984 z"
       id="path4090"
       style="fill:none;stroke:#0000ff;stroke-width:2;stroke-miterlimit:4;stroke-opacity:1;stroke-dasharray:none" />
    <path
       d="m 51.234425,43.01182 c 2.80382,-2.505209 3.26578,-3.577726 3.26578,-7.582029 0,-4.049156 -0.45184,-5.067778 -3.42723,-7.726288 l -3.427225,-3.06223 4.927225,0.523177 c 2.70998,0.287747 5.714731,0.850808 6.67723,1.251247 1.45469,0.605211 1.75,0.185719 1.75,-2.485906 0,-2.671625 -0.29531,-3.091117 -1.75,-2.485906 -0.962499,0.400439 -3.96725,0.9635 -6.67723,1.251247 l -4.927225,0.523177 3.427225,-3.06223 c 2.941879,-2.628574 3.42723,-3.699702 3.42723,-7.563695 0,-5.3455384 -3.06933,-9.3035714 -7.920345,-10.2136264 -6.98014,-1.309483 -11.96427,3.484722 -11.96427,11.5083644 l 0,4.721388 -3.44724,-2.339359 c -5.09618,-3.458356 -9.595781,-3.111725 -13.768151,1.06064 -3.77956,3.779557 -4.2974,6.963936 -1.88965,11.620016 2.891851,5.59222 9.74439,6.839768 16.07585,2.926711 3.62854,-2.242565 3.6427,-2.243274 2.978051,-0.149166 -1.20511,3.79697 1.23727,10.110651 4.73658,12.244308 4.52242,2.757492 8.09454,2.470175 11.933395,-0.95984 z"
       id="path4090-5"
       style="fill:none;stroke:#0000ff;stroke-width:2;stroke-miterlimit:4;stroke-opacity:1;stroke-dasharray:none" />
  </g>
</svg>
