<?xml version="1.0" encoding="UTF-8" standalone="no"?>
<!-- Created with Inkscape (http://www.inkscape.org/) -->

<svg
   xmlns:svg="http://www.w3.org/2000/svg"
   xmlns="http://www.w3.org/2000/svg"
   version="1.1"
   width="120"
   height="48"
   id="svg2">
  <defs
     id="defs6" />
  <g
     transform="translate(-0.499995,0)"
     id="g2857">
    <path
       d="m 112.75252,27.831984 c -2.88886,1.7583 -9.17139,6.32031 -13.961177,10.13778 -4.789789,3.81748 -10.144439,7.44137 -11.899223,8.05309 -8.929346,3.11279 -17.892072,-1.54108 -17.892072,-9.2904 0,-2.23093 1.139751,-4.01899 4.638837,-7.2775 l 4.638837,-4.319882 -3.888837,0.02386 c -3.860368,0.02368 -9.281244,1.082171 -12.638837,2.46788 -1.504071,0.620742 -1.75,0.130052 -1.75,-3.491737 0,-3.621785 0.245929,-4.112481 1.75,-3.491737 3.357593,1.385709 8.778469,2.444198 12.638837,2.46788 l 3.888837,0.02386 -4.638837,-4.319887 c -3.499086,-3.258501 -4.638837,-5.046564 -4.638837,-7.277494 0,-5.652098 5.60825,-10.402619 12.280863,-10.402619 4.653845,0 10.547647,3.251467 21.801679,12.027455 5.2704,4.1099 10.78401,8.372545 12.25247,9.472545 l 2.66993,2 -5.25247,3.196909 z"
       id="path2818"
       style="fill:none;stroke:#0000ff;stroke-width:2;stroke-miterlimit:4;stroke-opacity:1;stroke-dasharray:none" />
    <path
       d="m 8.247469,27.831985 c 2.888858,1.7583 9.171387,6.32031 13.961175,10.13778 4.789789,3.817479 10.14444,7.441369 11.899224,8.053089 8.929346,3.11279 17.892071,-1.54108 17.892071,-9.290399 0,-2.23093 -1.139751,-4.01899 -4.638837,-7.2775 l -4.638836,-4.319882 3.888836,0.02386 c 3.860368,0.02368 9.281243,1.082171 12.638836,2.46788 1.504071,0.620742 1.75,0.130052 1.75,-3.491737 0,-3.621785 -0.245929,-4.112481 -1.75,-3.491737 -3.357593,1.385709 -8.778468,2.444198 -12.638836,2.46788 l -3.888836,0.02386 4.638836,-4.319887 c 3.499086,-3.258501 4.638837,-5.046564 4.638837,-7.277494 0,-5.652098 -5.60825,-10.402619 -12.280862,-10.402619 -4.653845,0 -10.547648,3.251467 -21.801681,12.027455 -5.270398,4.1099 -10.784009,8.372545 -12.252469,9.472545 l -2.669927,2 5.252469,3.196909 z"
       id="path2818-4"
       style="fill:none;stroke:#0000ff;stroke-width:2;stroke-miterlimit:4;stroke-opacity:1;stroke-dasharray:none" />
  </g>
</svg>
