<?xml version="1.0" encoding="UTF-8" standalone="no"?>
<!-- Created with Inkscape (http://www.inkscape.org/) -->

<svg
   xmlns:svg="http://www.w3.org/2000/svg"
   xmlns="http://www.w3.org/2000/svg"
   version="1.1"
   width="120"
   height="48"
   id="svg2">
  <defs
     id="defs6" />
  <g
     transform="matrix(0,-1,1,0,19.200534,84.072653)"
     id="g3793">
    <path
       d="M 43.967939,87.184232 C 37.492729,84.505907 34.9199,76.41929 38.193757,69.03549 39.681819,65.679341 52.341551,49.462444 59.426941,41.836149 c 0.929421,-1.000374 19.897415,22.014111 22.31973,27.081253 4.004403,8.376653 -0.424746,17.760115 -8.92097,18.899698 -3.253592,0.436398 -4.500492,0.07194 -7.026912,-2.053902 -1.68929,-1.421443 -3.6559,-3.995463 -4.370244,-5.720045 l -1.298809,-3.135602 -1.808523,3.525173 c -3.351406,6.532564 -8.746851,9.070479 -14.353274,6.751508 z"
       id="path3769"
       style="fill:none;stroke:#0000ff;stroke-width:2;stroke-miterlimit:4;stroke-opacity:1;stroke-dasharray:none" />
    <path
       d="m 43.967989,-5.5753217 c -6.47521,2.678325 -9.048039,10.764942 -5.774182,18.1487427 1.488062,3.356149 14.147794,19.573045 21.233184,27.199341 0.929421,1.000374 19.897415,-22.014111 22.31973,-27.081253 4.004403,-8.3766537 -0.424746,-17.7601157 -8.92097,-18.8996984 -3.253592,-0.436398 -4.500492,-0.07194 -7.026912,2.0539017 -1.68929,1.421443 -3.6559,3.99546297 -4.370244,5.720045 l -1.298809,3.135602 -1.808523,-3.525173 c -3.351406,-6.532564 -8.746851,-9.0704787 -14.353274,-6.751508 z"
       id="path3769-7"
       style="fill:none;stroke:#0000ff;stroke-width:2;stroke-miterlimit:4;stroke-opacity:1;stroke-dasharray:none" />
  </g>
</svg>
