<?xml version="1.0" encoding="UTF-8" standalone="no"?>
<!-- Created with Inkscape (http://www.inkscape.org/) -->

<svg
   xmlns:svg="http://www.w3.org/2000/svg"
   xmlns="http://www.w3.org/2000/svg"
   version="1.1"
   width="48"
   height="120"
   id="svg2">
  <defs
     id="defs6" />
  <g
     transform="translate(0,-0.4999995)"
     id="g2830">
    <path
       d="M 43.01182,51.23422 C 40.506611,54.03804 39.434094,54.5 35.429791,54.5 c -4.049156,0 -5.067778,-0.45184 -7.726288,-3.42723 l -3.06223,-3.427231 0.523177,4.927231 c 0.287747,2.70998 0.850808,5.71473 1.251247,6.67723 0.605211,1.45469 0.185719,1.75 -2.485906,1.75 -2.671625,0 -3.091117,-0.29531 -2.485906,-1.75 0.400439,-0.9625 0.9635,-3.96725 1.251247,-6.67723 l 0.523177,-4.927231 -3.06223,3.427231 C 17.527505,54.014649 16.456377,54.5 12.592384,54.5 7.2468454,54.5 3.2888124,51.43067 2.3787574,46.579659 1.0692741,39.59952 5.8634794,34.61539 13.887122,34.61539 l 4.721388,0 -2.339359,-3.447241 c -3.458356,-5.09618 -3.111725,-9.59578 1.06064,-13.76815 3.779557,-3.779557 6.963936,-4.297402 11.620016,-1.88965 5.59222,2.89185 6.839768,9.74439 2.926711,16.07585 -2.242565,3.628541 -2.243274,3.6427 -0.149166,2.978051 3.79697,-1.20511 10.110651,1.23727 12.244308,4.73658 2.757492,4.522419 2.470175,8.09454 -0.95984,11.93339 z"
       id="path4090"
       style="fill:none;stroke:#0000ff;stroke-width:2;stroke-miterlimit:4;stroke-opacity:1;stroke-dasharray:none" />
    <path
       d="m 43.01182,69.765779 c -2.505209,-2.80382 -3.577726,-3.26578 -7.582029,-3.26578 -4.049156,0 -5.067778,0.45184 -7.726288,3.42723 l -3.06223,3.427225 0.523177,-4.927225 c 0.287747,-2.70998 0.850808,-5.714731 1.251247,-6.677231 0.605211,-1.45469 0.185719,-1.75 -2.485906,-1.75 -2.671625,0 -3.091117,0.29531 -2.485906,1.75 0.400439,0.9625 0.9635,3.967251 1.251247,6.677231 l 0.523177,4.927225 -3.06223,-3.427225 c -2.628574,-2.94188 -3.699702,-3.42723 -7.563695,-3.42723 -5.3455386,0 -9.3035716,3.06933 -10.2136266,7.920345 -1.309483,6.98014 3.484722,11.96427 11.5083646,11.96427 l 4.721388,0 -2.339359,3.44724 c -3.458356,5.09618 -3.111725,9.595777 1.06064,13.768146 3.779557,3.77956 6.963936,4.2974 11.620016,1.88965 5.59222,-2.89185 6.839768,-9.744386 2.926711,-16.075846 -2.242565,-3.62854 -2.243274,-3.6427 -0.149166,-2.97805 3.79697,1.20511 10.110651,-1.23727 12.244308,-4.73658 2.757492,-4.52242 2.470175,-8.09454 -0.95984,-11.933395 z"
       id="path4090-5"
       style="fill:none;stroke:#0000ff;stroke-width:2;stroke-miterlimit:4;stroke-opacity:1;stroke-dasharray:none" />
  </g>
</svg>
