<?xml version="1.0" encoding="UTF-8" standalone="no"?>
<!-- Created with Inkscape (http://www.inkscape.org/) -->

<svg
   xmlns:svg="http://www.w3.org/2000/svg"
   xmlns="http://www.w3.org/2000/svg"
   version="1.1"
   width="48"
   height="120"
   id="svg2">
  <defs
     id="defs6" />
  <g
     transform="translate(0,-1.0000011)"
     id="g3008">
    <path
       d="M 7.962824,106.37978 C 1.487614,103.70145 -1.085215,95.614835 2.188642,88.231035 3.676704,84.874886 16.336436,68.657989 23.421826,61.031694 c 0.929421,-1.000374 19.897415,22.014111 22.31973,27.081253 4.004403,8.376653 -0.424746,17.760113 -8.92097,18.899693 -3.253592,0.4364 -4.500492,0.0719 -7.026912,-2.0539 -1.68929,-1.42144 -3.6559,-3.99546 -4.370244,-5.720042 l -1.298809,-3.135602 -1.808523,3.525173 c -3.351406,6.532561 -8.746851,9.070481 -14.353274,6.751511 z"
       id="path3769"
       style="fill:none;stroke:#0000ff;stroke-width:2;stroke-miterlimit:4;stroke-opacity:1;stroke-dasharray:none" />
    <path
       d="m 7.962874,15.620223 c -6.47521,2.678325 -9.048039,10.764942 -5.774182,18.148743 1.488062,3.356149 14.147794,19.573045 21.233184,27.199341 0.929421,1.000374 19.897415,-22.014111 22.31973,-27.081253 4.004403,-8.376654 -0.424746,-17.760116 -8.92097,-18.899698 -3.253592,-0.436398 -4.500492,-0.07194 -7.026912,2.053901 -1.68929,1.421443 -3.6559,3.995463 -4.370244,5.720045 l -1.298809,3.135602 -1.808523,-3.525173 C 18.964742,15.839167 13.569297,13.301253 7.962874,15.620223 z"
       id="path3769-7"
       style="fill:none;stroke:#0000ff;stroke-width:2;stroke-miterlimit:4;stroke-opacity:1;stroke-dasharray:none" />
  </g>
</svg>
