<?xml version="1.0" encoding="UTF-8" standalone="no"?>
<!-- Created with Inkscape (http://www.inkscape.org/) -->

<svg
   xmlns:svg="http://www.w3.org/2000/svg"
   xmlns="http://www.w3.org/2000/svg"
   version="1.1"
   width="48"
   height="120"
   id="svg2">
  <defs
     id="defs6" />
  <g
     transform="translate(0,-0.50002625)"
     id="g2830">
    <path
       d="m 20.235555,112.75252 c -1.7583,-2.88886 -6.32031,-9.17139 -10.13778,-13.961176 -3.8174804,-4.78979 -7.4413704,-10.144439 -8.0530904,-11.899223 -3.11279,-8.929346 1.54108,-17.892072 9.2904004,-17.892072 2.23093,0 4.01899,1.139751 7.2775,4.638836 l 4.319882,4.638837 -0.02386,-3.888837 c -0.02368,-3.860367 -1.082171,-9.281244 -2.46788,-12.638837 -0.620742,-1.504071 -0.130052,-1.75 3.491737,-1.75 3.621785,0 4.112481,0.245929 3.491737,1.75 -1.385709,3.357593 -2.444198,8.778469 -2.46788,12.638837 l -0.02386,3.888837 4.319887,-4.638837 c 3.258501,-3.499086 5.046564,-4.638836 7.277494,-4.638836 5.652098,0 10.402619,5.60825 10.402619,12.280863 0,4.653845 -3.251467,10.547646 -12.027455,21.801678 -4.1099,5.2704 -8.372545,10.78401 -9.472545,12.25247 l -2,2.66993 -3.196909,-5.25247 z"
       id="path2818"
       style="fill:none;stroke:#0000ff;stroke-width:2;stroke-miterlimit:4;stroke-opacity:1;stroke-dasharray:none" />
    <path
       d="m 20.235554,8.2475315 c -1.7583,2.8888575 -6.32031,9.1713865 -10.13778,13.9611755 -3.8174788,4.789788 -7.4413688,10.144439 -8.0530888,11.899223 -3.11279,8.929346 1.54108,17.892071 9.2903988,17.892071 2.23093,0 4.01899,-1.13975 7.2775,-4.638837 l 4.319882,-4.638836 -0.02386,3.888836 C 22.884926,50.471532 21.826435,55.892407 20.440726,59.25 19.819984,60.754071 20.310674,61 23.932463,61 27.554248,61 28.044944,60.754071 27.4242,59.25 26.038491,55.892407 24.980002,50.471532 24.95632,46.611164 l -0.02386,-3.888836 4.319887,4.638836 c 3.258501,3.499086 5.046564,4.638837 7.277494,4.638837 5.652098,0 10.402619,-5.608249 10.402619,-12.280862 0,-4.653844 -3.251467,-10.547648 -12.027455,-21.80168 C 30.795105,12.647061 26.53246,7.1334495 25.43246,5.6649895 l -2,-2.669927 -3.196909,5.252469 z"
       id="path2818-4"
       style="fill:none;stroke:#0000ff;stroke-width:2;stroke-miterlimit:4;stroke-opacity:1;stroke-dasharray:none" />
  </g>
</svg>
