<?xml version="1.0" encoding="UTF-8" standalone="no"?>
<!-- Created with Inkscape (http://www.inkscape.org/) -->

<svg
   xmlns:svg="http://www.w3.org/2000/svg"
   xmlns="http://www.w3.org/2000/svg"
   version="1.1"
   width="120"
   height="48"
   id="svg2">
  <defs
     id="defs6" />
  <g
     transform="translate(-1.0049906,0)"
     id="g3035">
    <path
       d="m 106.38477,40.104714 c -2.67833,6.47521 -10.764946,9.048039 -18.148746,5.774182 C 84.879875,44.390834 68.662978,31.731102 61.036683,24.645712 60.036309,23.716291 83.050794,4.748297 88.117936,2.325982 c 8.376653,-4.004403 17.760114,0.424746 18.899694,8.92097 0.4364,3.253592 0.0719,4.500492 -2.0539,7.026912 -1.42144,1.68929 -3.99546,3.6559 -5.720043,4.370244 l -3.135602,1.298809 3.525173,1.808523 c 6.532562,3.351406 9.070482,8.746851 6.751512,14.353274 z"
       id="path3769"
       style="fill:none;stroke:#0000ff;stroke-width:2;stroke-miterlimit:4;stroke-opacity:1;stroke-dasharray:none" />
    <path
       d="m 15.625212,40.104664 c 2.678325,6.47521 10.764942,9.048039 18.148743,5.774182 C 37.130104,44.390784 53.347,31.731052 60.973296,24.645662 61.97367,23.716241 38.959185,4.748247 33.892043,2.325932 c -8.376654,-4.004403 -17.760116,0.424746 -18.899698,8.92097 -0.436398,3.253592 -0.07194,4.500492 2.053901,7.026912 1.421443,1.68929 3.995463,3.6559 5.720045,4.370244 l 3.135602,1.298809 -3.525173,1.808523 c -6.532564,3.351406 -9.070478,8.746851 -6.751508,14.353274 z"
       id="path3769-7"
       style="fill:none;stroke:#0000ff;stroke-width:2;stroke-miterlimit:4;stroke-opacity:1;stroke-dasharray:none" />
  </g>
</svg>
